# xmcd
#
# Track frame offsets:
#  150
#  10183
#  30330
#  43509
#  66611
#  80966
#  97600
#  110375
#  131781
#  146646
#  157215
#  175210
#  192699
#  203013
#  221000
#  233785
#
# Disc length: 3312 seconds
#
# Revision: 2
# Processed by: cddbd v1.5.1PL2 Copyright (c) Steve Scherf et al.
# Submitted via: Collectorz.com_Music_Collector 6.9
#
DISCID=e80cee10
DTITLE=James Talley - Touchstones
DYEAR=2002
DGENRE=Traditional Country
TTITLE0=Tryin' Like the Devil
TTITLE1=Sometimes I Think About Suzanne
TTITLE2=Calico Gypsy
TTITLE3=Bluesman
TTITLE4=W. Lee O'Daniel and the Light Crust Dough Boys
TTITLE5=Not Even When It's Over
TTITLE6=Forty Hours
TTITLE7=Deep Country Blues
TTITLE8=Are They Gonna Make Us Outlaws Again?
TTITLE9=Richland, Washington
TTITLE10=Nothin' But the Blues
TTITLE11=Up From Georgia
TTITLE12=To Get Back Home
TTITLE13=What Will There Be for the Children?
TTITLE14=When the Fiddler Packs His Case
TTITLE15=Give My Love to Marie
EXTD=
EXTT0=
EXTT1=
EXTT2=
EXTT3=
EXTT4=
EXTT5=
EXTT6=
EXTT7=
EXTT8=
EXTT9=
EXTT10=
EXTT11=
EXTT12=
EXTT13=
EXTT14=
EXTT15=
PLAYORDER=
